<?xml version="1.0" encoding="UTF-8" standalone="no"?>
<!-- Created with Inkscape (http://www.inkscape.org/) -->

<svg
   width="56.369999mm"
   height="69.705002mm"
   viewBox="0 0 56.369999 69.705002"
   version="1.1"
   id="svg5"
   inkscape:version="1.2.2 (b0a8486541, 2022-12-01)"
   sodipodi:docname="stencil.svg"
   xmlns:inkscape="http://www.inkscape.org/namespaces/inkscape"
   xmlns:sodipodi="http://sodipodi.sourceforge.net/DTD/sodipodi-0.dtd"
   xmlns="http://www.w3.org/2000/svg"
   xmlns:svg="http://www.w3.org/2000/svg">
  <sodipodi:namedview
     id="namedview7"
     pagecolor="#ffffff"
     bordercolor="#000000"
     borderopacity="0.25"
     inkscape:showpageshadow="2"
     inkscape:pageopacity="0.0"
     inkscape:pagecheckerboard="0"
     inkscape:deskcolor="#d1d1d1"
     inkscape:document-units="mm"
     showgrid="false"
     inkscape:zoom="2"
     inkscape:cx="41.25"
     inkscape:cy="119.25"
     inkscape:window-width="1920"
     inkscape:window-height="1030"
     inkscape:window-x="0"
     inkscape:window-y="48"
     inkscape:window-maximized="1"
     inkscape:current-layer="layer1"
     showguides="true">
    <inkscape:grid
       type="xygrid"
       id="grid3927"
       originx="0.049999999"
       originy="0.050000003" />
  </sodipodi:namedview>
  <defs
     id="defs2" />
  <g
     inkscape:label="Layer 1"
     inkscape:groupmode="layer"
     id="layer1"
     transform="translate(0.05,0.05)">
    <rect
       style="fill:none;stroke:#ff0000;stroke-width:0.26458333;stroke-dasharray:none;vector-effect:non-scaling-stroke;-inkscape-stroke:hairline"
       id="rect111"
       width="56.27"
       x="0"
       y="0"
       height="69.605003" />
    <g
       aria-label="0–10 Ω"
       id="text987"
       style="font-weight:bold;font-size:7.76111px;line-height:0px;font-family:Ubuntu;-inkscape-font-specification:'Ubuntu, Bold';text-align:center;text-anchor:middle;vector-effect:non-scaling-stroke;fill:#000000;stroke-width:0.264583;stroke-dasharray:none;-inkscape-stroke:hairline"
       transform="matrix(1.4395054,0,0,1.4395054,-105.81481,-115.82084)">
      <path
         id="path3365"
         style="vector-effect:non-scaling-stroke;fill:#000000;stroke-width:0.264583;stroke-dasharray:none;-inkscape-stroke:hairline"
         d="M 83.064446 102.12662 C 82.769525 102.12662 82.502989 102.1884 82.264981 102.31258 C 82.026974 102.43676 81.822575 102.61808 81.651831 102.85609 C 81.481087 103.09409 81.34936 103.38643 81.256227 103.73309 C 81.168268 104.07976 81.124119 104.47802 81.124119 104.92816 C 81.124119 105.73708 81.260457 106.37863 81.533006 106.85305 L 82.324932 105.48172 C 82.311052 105.30962 82.303752 105.12526 82.303752 104.92816 C 82.303752 104.65912 82.316656 104.41601 82.342523 104.1987 C 82.368395 103.97621 82.409819 103.78471 82.466732 103.62432 C 82.528821 103.46392 82.606582 103.33965 82.699715 103.25169 C 82.798022 103.16373 82.919573 103.11994 83.064446 103.11994 C 83.209321 103.11994 83.33087 103.16373 83.429178 103.25169 C 83.469393 103.28767 83.506099 103.33031 83.539387 103.37841 L 84.082176 102.43823 C 83.799252 102.2305 83.460074 102.12662 83.064446 102.12662 z M 84.569322 102.98353 L 83.798935 104.31788 C 83.816377 104.50393 83.825141 104.70723 83.825141 104.92816 C 83.825141 105.19722 83.812237 105.44304 83.78637 105.66552 C 83.760498 105.88801 83.719074 106.07951 83.66216 106.2399 C 83.605246 106.4003 83.527485 106.52458 83.429178 106.61253 C 83.33087 106.70049 83.209321 106.74428 83.064446 106.74428 C 82.919573 106.74428 82.798022 106.70049 82.699715 106.61253 C 82.652005 106.56748 82.608247 106.51254 82.568685 106.44847 L 82.014767 107.40805 C 82.305685 107.62771 82.655429 107.7376 83.064446 107.7376 C 83.669812 107.7376 84.143112 107.49722 84.484601 107.01603 C 84.831263 106.52967 85.004773 105.83363 85.004773 104.92816 C 85.004773 104.1045 84.859485 103.45639 84.569322 102.98353 z " />
      <path
         d="m 85.75079,104.82733 h 3.880555 v 0.96238 H 85.75079 Z"
         id="path3367"
         style="vector-effect:non-scaling-stroke;fill:#000000;stroke-width:0.264583;stroke-dasharray:none;-inkscape-stroke:hairline" />
      <path
         d="m 90.174623,103.36824 q 0.225072,-0.0931 0.465666,-0.20955 0.248356,-0.12418 0.481189,-0.26388 0.232833,-0.14746 0.442383,-0.30268 0.217311,-0.16298 0.388056,-0.34149 h 0.807155 v 5.37845 h -1.156405 v -3.87279 q -0.232833,0.15522 -0.519994,0.28716 -0.287161,0.12417 -0.5588,0.21731 z"
         id="path3369"
         style="vector-effect:non-scaling-stroke;fill:#000000;stroke-width:0.264583;stroke-dasharray:none;-inkscape-stroke:hairline" />
      <path
         id="path3371"
         style="vector-effect:non-scaling-stroke;fill:#000000;stroke-width:0.264583;stroke-dasharray:none;-inkscape-stroke:hairline"
         d="M 96.243951 102.12662 C 95.94903 102.12662 95.682494 102.1884 95.444486 102.31258 C 95.206479 102.43676 95.00208 102.61808 94.831336 102.85609 C 94.660591 103.09409 94.528506 103.38643 94.435373 103.73309 C 94.347414 104.07976 94.303624 104.47802 94.303624 104.92816 C 94.303624 105.7225 94.434981 106.35541 94.697793 106.82721 L 95.501206 105.43577 C 95.489638 105.27668 95.483257 105.10807 95.483257 104.92816 C 95.483257 104.65912 95.496154 104.41601 95.522028 104.1987 C 95.547899 103.97621 95.589324 103.78471 95.646237 103.62432 C 95.708327 103.46392 95.786087 103.33965 95.87922 103.25169 C 95.977527 103.16373 96.099078 103.11994 96.243951 103.11994 C 96.388825 103.11994 96.510375 103.16373 96.608683 103.25169 C 96.642371 103.28183 96.673192 103.31679 96.702019 103.35544 L 97.2405 102.42279 C 96.961878 102.22526 96.629744 102.12662 96.243951 102.12662 z M 97.73339 102.95876 L 96.974132 104.27409 C 96.994436 104.47183 97.004287 104.68983 97.004287 104.92816 C 97.004287 105.19722 96.991389 105.44304 96.965516 105.66552 C 96.939644 105.88801 96.89822 106.07951 96.841306 106.2399 C 96.784392 106.4003 96.70699 106.52458 96.608683 106.61253 C 96.510375 106.70049 96.388825 106.74428 96.243951 106.74428 C 96.099078 106.74428 95.977527 106.70049 95.87922 106.61253 C 95.825336 106.56165 95.776603 106.49812 95.733112 106.42299 L 95.173451 107.39225 C 95.468415 107.6225 95.825197 107.7376 96.243951 107.7376 C 96.849317 107.7376 97.322617 107.49722 97.664106 107.01603 C 98.010768 106.52967 98.183919 105.83363 98.183919 104.92816 C 98.183919 104.09007 98.033814 103.43365 97.73339 102.95876 z " />
      <path
         d="m 103.353,102.12646 q 0.5588,0 1.03223,0.17075 0.48118,0.16298 0.83043,0.48895 0.34925,0.32596 0.54328,0.80715 0.20179,0.47343 0.20179,1.08656 0,1.1176 -0.80715,1.94804 h 0.92357 v 1.00118 h -2.35162 v -0.90029 q 0.20179,-0.17074 0.3803,-0.37253 0.1785,-0.20955 0.31044,-0.45015 0.1397,-0.24835 0.21731,-0.54327 0.0776,-0.29493 0.0776,-0.64418 0,-0.75282 -0.36477,-1.14864 -0.36477,-0.39582 -0.99342,-0.39582 -0.62865,0 -0.99342,0.39582 -0.36478,0.39582 -0.36478,1.14864 0,0.34925 0.0776,0.64418 0.0776,0.29492 0.20955,0.54327 0.13193,0.2406 0.31044,0.45015 0.17851,0.20179 0.38029,0.37253 v 0.90029 h -2.35161 v -1.00118 h 0.92357 q -0.79939,-0.8382 -0.79939,-1.94804 0,-0.61313 0.19402,-1.08656 0.20179,-0.48119 0.55104,-0.80715 0.34925,-0.32597 0.82268,-0.48895 0.48119,-0.17075 1.03999,-0.17075 z"
         id="path3373"
         style="vector-effect:non-scaling-stroke;fill:#000000;stroke-width:0.264583;stroke-dasharray:none;-inkscape-stroke:hairline" />
    </g>
  </g>
</svg>
