<?xml version="1.0" encoding="UTF-8" standalone="no"?>
<!-- Created with Inkscape (http://www.inkscape.org/) -->

<svg
   width="40mm"
   height="20mm"
   viewBox="0 0 40 20"
   version="1.1"
   id="svg5"
   xml:space="preserve"
   xmlns="http://www.w3.org/2000/svg"
   xmlns:svg="http://www.w3.org/2000/svg"><defs
     id="defs2" /><g
     id="layer1"
     transform="translate(-49.722454,-113.13597)"><g
       aria-label="0–10 Ω"
       id="text236"
       style="font-weight:bold;font-size:11.2889px;line-height:0px;font-family:Ubuntu;-inkscape-font-specification:'Ubuntu, Bold';text-align:center;text-anchor:middle;vector-effect:non-scaling-stroke;stroke-width:0.264583;-inkscape-stroke:hairline"
       transform="matrix(0.85601384,0,0,0.85601384,29.951688,31.097974)"><path
         d="m 34.551919,107.27856 q 0,1.97556 -0.756357,3.03672 -0.745067,1.04986 -2.065868,1.04986 -1.320802,0 -2.077158,-1.04986 -0.745067,-1.06116 -0.745067,-3.03672 0,-0.98213 0.191911,-1.73849 0.2032,-0.75635 0.575734,-1.27564 0.372533,-0.51929 0.891823,-0.79023 0.519289,-0.27093 1.162757,-0.27093 1.320801,0 2.065868,1.06116 0.756357,1.04986 0.756357,3.01413 z m -1.715913,0 q 0,-0.58702 -0.05644,-1.06115 -0.05644,-0.48543 -0.180622,-0.83538 -0.124178,-0.34996 -0.338667,-0.54187 -0.214489,-0.19191 -0.530578,-0.19191 -0.31609,0 -0.530579,0.19191 -0.2032,0.19191 -0.338667,0.54187 -0.124178,0.34995 -0.180622,0.83538 -0.05645,0.47413 -0.05645,1.06115 0,0.58703 0.05645,1.07245 0.05644,0.48542 0.180622,0.83538 0.135467,0.34995 0.338667,0.54186 0.214489,0.19192 0.530579,0.19192 0.316089,0 0.530578,-0.19192 0.214489,-0.19191 0.338667,-0.54186 0.124178,-0.34996 0.180622,-0.83538 0.05644,-0.48542 0.05644,-1.07245 z"
         style="vector-effect:non-scaling-stroke"
         id="path1014" /><path
         d="m 35.464918,107.13181 h 5.64445 v 1.39982 h -5.64445 z"
         style="vector-effect:non-scaling-stroke"
         id="path1016" /><path
         d="m 41.370424,105.00949 q 0.327378,-0.13546 0.677334,-0.3048 0.361245,-0.18062 0.699912,-0.38382 0.338667,-0.21449 0.643467,-0.44027 0.316089,-0.23706 0.564445,-0.49671 h 1.174046 v 7.82321 h -1.682047 v -5.63316 q -0.338667,0.22578 -0.756356,0.41769 -0.417689,0.18062 -0.812801,0.31609 z"
         style="vector-effect:non-scaling-stroke"
         id="path1018" /><path
         d="m 53.020577,107.27856 q 0,1.97556 -0.756356,3.03672 -0.745068,1.04986 -2.065869,1.04986 -1.320801,0 -2.077158,-1.04986 -0.745067,-1.06116 -0.745067,-3.03672 0,-0.98213 0.191911,-1.73849 0.2032,-0.75635 0.575734,-1.27564 0.372534,-0.51929 0.891823,-0.79023 0.51929,-0.27093 1.162757,-0.27093 1.320801,0 2.065869,1.06116 0.756356,1.04986 0.756356,3.01413 z m -1.715913,0 q 0,-0.58702 -0.05644,-1.06115 -0.05645,-0.48543 -0.180623,-0.83538 -0.124178,-0.34996 -0.338667,-0.54187 -0.214489,-0.19191 -0.530578,-0.19191 -0.316089,0 -0.530578,0.19191 -0.2032,0.19191 -0.338667,0.54187 -0.124178,0.34995 -0.180623,0.83538 -0.05644,0.47413 -0.05644,1.06115 0,0.58703 0.05644,1.07245 0.05644,0.48542 0.180623,0.83538 0.135467,0.34995 0.338667,0.54186 0.214489,0.19192 0.530578,0.19192 0.316089,0 0.530578,-0.19192 0.214489,-0.19191 0.338667,-0.54186 0.124178,-0.34996 0.180623,-0.83538 0.05644,-0.48542 0.05644,-1.07245 z"
         style="vector-effect:non-scaling-stroke"
         id="path1020" /><path
         d="m 60.538992,103.20327 q 0.812801,0 1.501424,0.24836 0.699912,0.23706 1.207912,0.7112 0.508001,0.47413 0.790223,1.17404 0.293512,0.68862 0.293512,1.58045 0,1.6256 -1.174046,2.83351 h 1.343379 v 1.45627 h -3.420537 v -1.30951 q 0.293512,-0.24836 0.553157,-0.54187 0.259644,-0.3048 0.451556,-0.65476 0.2032,-0.36124 0.316089,-0.79022 0.112889,-0.42898 0.112889,-0.93698 0,-1.09502 -0.530578,-1.67075 -0.530579,-0.57574 -1.44498,-0.57574 -0.914401,0 -1.444979,0.57574 -0.530578,0.57573 -0.530578,1.67075 0,0.508 0.112889,0.93698 0.112889,0.42898 0.3048,0.79022 0.191911,0.34996 0.451556,0.65476 0.259645,0.29351 0.553156,0.54187 v 1.30951 h -3.420537 v -1.45627 h 1.343379 q -1.162756,-1.2192 -1.162756,-2.83351 0,-0.89183 0.282222,-1.58045 0.293512,-0.69991 0.801512,-1.17404 0.508001,-0.47414 1.196624,-0.7112 0.699911,-0.24836 1.512712,-0.24836 z"
         style="vector-effect:non-scaling-stroke"
         id="path1022" /></g><rect
       style="vector-effect:non-scaling-stroke;fill:none;fill-opacity:1;stroke:#ff0000;stroke-width:0.197506;stroke-dasharray:none;-inkscape-stroke:hairline"
       id="rect1129"
       width="40"
       height="20"
       x="49.722454"
       y="113.13597"
       rx="3"
       ry="3" /></g></svg>
